<svg xmlns="http://www.w3.org/2000/svg" width="130.515" height="130.41" viewBox="0 0 130.515 130.41">
  <g id="cirugia" transform="translate(0 -0.205)">
    <path id="Trazado_1879" data-name="Trazado 1879" d="M123.805,246.93H17.572a1.916,1.916,0,1,0,0,3.833H41.536v9.7H3.833v-6.821a2.88,2.88,0,0,1,2.876-2.876h3.2a1.916,1.916,0,1,0,0-3.833h-3.2A6.717,6.717,0,0,0,0,253.639v14.69a5.16,5.16,0,0,0,5.154,5.154H18.04v34.355a6.458,6.458,0,1,0,12.915,0V296.031H100.02v11.807a6.458,6.458,0,0,0,12.915,0V273.484H125.36a5.16,5.16,0,0,0,5.154-5.154v-14.69A6.717,6.717,0,0,0,123.805,246.93Zm2.876,6.709v6.821h-37.7v-9.7H123.8A2.88,2.88,0,0,1,126.682,253.639Zm-81.313-2.876H85.145v9.7H45.369ZM27.123,307.838a2.625,2.625,0,0,1-5.249,0V273.484h5.249Zm3.833-15.64v-5.063H100.02V292.2Zm78.147,15.64a2.625,2.625,0,0,1-5.25,0V273.484h5.25Zm17.579-39.509a1.322,1.322,0,0,1-1.321,1.321h-56.1a1.916,1.916,0,1,0,0,3.833h30.756V283.3H30.956v-9.819H61.6a1.916,1.916,0,0,0,0-3.833H5.154a1.322,1.322,0,0,1-1.321-1.321v-4.036H126.682Z" transform="translate(0 -183.681)"/>
    <path id="Trazado_1880" data-name="Trazado 1880" d="M107.943,51.339a1.916,1.916,0,0,0,1.916-1.916V39.207a9.14,9.14,0,0,1,4.366-7.827l14.826-9.155c.025-.016.048-.033.072-.05a12.956,12.956,0,0,0,8.976,3.608H142v23.64a1.916,1.916,0,1,0,3.833,0V25.783h4.918a12.939,12.939,0,0,0,8.064-2.813l13.62,8.41a9.14,9.14,0,0,1,4.366,7.827V49.423a1.916,1.916,0,0,0,3.833,0V39.207a12.948,12.948,0,0,0-6.185-11.088l-12.965-8.006a12.927,12.927,0,0,0,2.268-7.121h4.218a3.114,3.114,0,0,0,3.11-3.11V3.315a3.114,3.114,0,0,0-3.11-3.11H120.882a3.114,3.114,0,0,0-3.11,3.11V9.881a3.114,3.114,0,0,0,3.11,3.11H125.1a12.917,12.917,0,0,0,1.661,6.143l-14.548,8.984a12.949,12.949,0,0,0-6.185,11.088V49.423a1.916,1.916,0,0,0,1.916,1.916ZM121.6,4.038h45.638V9.159H121.6Zm38.309,8.954a9.181,9.181,0,0,1-9.167,8.958H138.1a9.181,9.181,0,0,1-9.167-8.958Z" transform="translate(-78.935 0)"/>
  </g>
</svg>
