<svg xmlns="http://www.w3.org/2000/svg" width="121.903" height="121.903" viewBox="0 0 121.903 121.903">
  <g id="Layer_10" data-name="Layer 10" transform="translate(-1 -1)">
    <path id="Trazado_1863" data-name="Trazado 1863" d="M38.56,34.865h-5.9v-5.9A1.966,1.966,0,0,0,30.7,27H22.831a1.966,1.966,0,0,0-1.966,1.966v5.9h-5.9A1.966,1.966,0,0,0,13,36.831V44.7a1.966,1.966,0,0,0,1.966,1.966h5.9v5.9a1.966,1.966,0,0,0,1.966,1.966H30.7a1.966,1.966,0,0,0,1.966-1.966v-5.9h5.9A1.966,1.966,0,0,0,40.527,44.7V36.831A1.966,1.966,0,0,0,38.56,34.865Zm-1.966,7.865H30.7A1.966,1.966,0,0,0,28.729,44.7v5.9H24.8V44.7a1.966,1.966,0,0,0-1.966-1.966h-5.9V38.8h5.9A1.966,1.966,0,0,0,24.8,36.831v-5.9h3.932v5.9A1.966,1.966,0,0,0,30.7,38.8h5.9Z" transform="translate(11.594 25.121)"/>
    <path id="Trazado_1864" data-name="Trazado 1864" d="M115.039,75.715H75.715V42.29a1.966,1.966,0,0,0-.472-1.278L63.918,27.8V20.662h1.966A1.966,1.966,0,0,0,67.85,18.7V2.966A1.966,1.966,0,0,0,65.884,1H10.831A1.966,1.966,0,0,0,8.865,2.966V18.7a1.966,1.966,0,0,0,1.966,1.966H12.8V27.8L1.472,41.012A1.966,1.966,0,0,0,1,42.29V93.411a9.831,9.831,0,0,0,9.831,9.831H48.188v11.8a7.865,7.865,0,0,0,7.865,7.865h58.985a7.865,7.865,0,0,0,7.865-7.865V83.58A7.865,7.865,0,0,0,115.039,75.715ZM12.8,4.932H63.918v11.8H12.8ZM59.985,20.662v5.9H16.729v-5.9ZM15.668,30.493h45.38l8.435,9.831H7.233ZM10.831,99.309a5.9,5.9,0,0,1-5.9-5.9V91.444H48.188v7.865ZM48.188,83.58v3.932H4.932V44.256h66.85V75.715H56.053A7.865,7.865,0,0,0,48.188,83.58Zm70.783,31.459a3.932,3.932,0,0,1-3.932,3.932H56.053a3.932,3.932,0,0,1-3.932-3.932V83.58a3.932,3.932,0,0,1,3.932-3.932h58.985a3.932,3.932,0,0,1,3.932,3.932Z" transform="translate(0 0)"/>
    <path id="Trazado_1865" data-name="Trazado 1865" d="M34.9,43a5.9,5.9,0,1,0,5.9,5.9A5.9,5.9,0,0,0,34.9,43Zm0,7.865A1.966,1.966,0,1,1,36.865,48.9,1.966,1.966,0,0,1,34.9,50.865Z" transform="translate(27.053 40.58)"/>
    <path id="Trazado_1866" data-name="Trazado 1866" d="M42.9,43a5.9,5.9,0,1,0,5.9,5.9A5.9,5.9,0,0,0,42.9,43Zm0,7.865A1.966,1.966,0,1,1,44.865,48.9,1.966,1.966,0,0,1,42.9,50.865Z" transform="translate(34.783 40.58)"/>
    <path id="Trazado_1867" data-name="Trazado 1867" d="M50.9,43a5.9,5.9,0,1,0,5.9,5.9A5.9,5.9,0,0,0,50.9,43Zm0,7.865A1.966,1.966,0,1,1,52.865,48.9,1.966,1.966,0,0,1,50.9,50.865Z" transform="translate(42.512 40.58)"/>
    <path id="Trazado_1868" data-name="Trazado 1868" d="M58.9,43a5.9,5.9,0,1,0,5.9,5.9A5.9,5.9,0,0,0,58.9,43Zm0,7.865A1.966,1.966,0,1,1,60.865,48.9,1.966,1.966,0,0,1,58.9,50.865Z" transform="translate(50.242 40.58)"/>
    <path id="Trazado_1869" data-name="Trazado 1869" d="M34.9,53a5.9,5.9,0,1,0,5.9,5.9A5.9,5.9,0,0,0,34.9,53Zm0,7.865A1.966,1.966,0,1,1,36.865,58.9,1.966,1.966,0,0,1,34.9,60.865Z" transform="translate(27.053 50.242)"/>
    <path id="Trazado_1870" data-name="Trazado 1870" d="M42.9,53a5.9,5.9,0,1,0,5.9,5.9A5.9,5.9,0,0,0,42.9,53Zm0,7.865A1.966,1.966,0,1,1,44.865,58.9,1.966,1.966,0,0,1,42.9,60.865Z" transform="translate(34.783 50.242)"/>
    <path id="Trazado_1871" data-name="Trazado 1871" d="M50.9,53a5.9,5.9,0,1,0,5.9,5.9A5.9,5.9,0,0,0,50.9,53Zm0,7.865A1.966,1.966,0,1,1,52.865,58.9,1.966,1.966,0,0,1,50.9,60.865Z" transform="translate(42.512 50.242)"/>
    <path id="Trazado_1872" data-name="Trazado 1872" d="M58.9,53a5.9,5.9,0,1,0,5.9,5.9A5.9,5.9,0,0,0,58.9,53Zm0,7.865A1.966,1.966,0,1,1,60.865,58.9,1.966,1.966,0,0,1,58.9,60.865Z" transform="translate(50.242 50.242)"/>
    <path id="Trazado_1873" data-name="Trazado 1873" d="M48.968,35.958a6.685,6.685,0,0,0,0,9.477l1.16,1.16a6.685,6.685,0,0,0,9.477,0L68.63,37.57a6.685,6.685,0,0,0,0-9.477l-1.16-1.16a6.862,6.862,0,0,0-9.477,0Zm7.865,7.865a2.91,2.91,0,0,1-3.932,0l-1.16-1.16a2.792,2.792,0,0,1,0-3.932L54.866,35.6,59.959,40.7Zm5.9-14.923a2.812,2.812,0,0,1,1.966.806l1.16,1.16a2.792,2.792,0,0,1,0,3.932l-3.126,3.126-5.092-5.092,3.126-3.126a2.812,2.812,0,0,1,1.966-.806Z" transform="translate(44.443 23.222)"/>
    <path id="Trazado_1874" data-name="Trazado 1874" d="M52.993,30.595a6.685,6.685,0,0,0,9.477,0l1.16-1.16a6.685,6.685,0,0,0,0-9.477L54.6,10.933a6.862,6.862,0,0,0-9.477,0l-1.16,1.16a6.685,6.685,0,0,0,0,9.477Zm8.671-5.9a2.812,2.812,0,0,1-.806,1.966l-1.16,1.16a2.91,2.91,0,0,1-3.932,0L52.639,24.7,57.731,19.6l3.126,3.126a2.812,2.812,0,0,1,.806,1.966ZM46.74,14.865l1.16-1.16a2.792,2.792,0,0,1,3.932,0l3.126,3.126-5.092,5.092L46.74,18.8a2.792,2.792,0,0,1,0-3.932Z" transform="translate(39.612 7.763)"/>
  </g>
</svg>
